<?xml version="1.0" encoding="iso-8859-1"?>
<!-- Generator: Adobe Illustrator 18.0.0, SVG Export Plug-In . SVG Version: 6.00 Build 0)  -->
<!DOCTYPE svg PUBLIC "-//W3C//DTD SVG 1.1//EN" "http://www.w3.org/Graphics/SVG/1.1/DTD/svg11.dtd">
<svg version="1.1" id="lamp" xmlns="http://www.w3.org/2000/svg" xmlns:xlink="http://www.w3.org/1999/xlink" x="0px" y="0px"
	 viewBox="0 0 60 60" style="enable-background:new 0 0 60 60;" xml:space="preserve">
<g>
	<path d="M38,54h-1c-1.281,0-2.69-2.012-2.953-5.005C35.679,48.969,37,47.638,37,46c0-1.497-1.106-2.731-2.541-2.954l1.686-4.216
		L33.08,35h3.145l-0.217-0.867C35.978,33.907,33,11.513,33,1.001V0h-6v1c0,10.51-2.979,32.907-3.009,33.133L23.838,35h3.081
		l-3.064,3.83l1.686,4.216C24.105,43.269,23,44.503,23,46c0,1.638,1.321,2.969,2.953,2.995C25.69,51.988,24.281,54,23,54h-1
		c-2.757,0-5,2.243-5,5v1h26v-1C43,56.243,40.757,54,38,54z M29.48,35h1.039l3.335,4.17L32.323,43h-4.646l-1.532-3.83L29.48,35z
		 M27.963,49h4.074c0.149,1.999,0.742,3.75,1.622,5h-7.318C27.22,52.75,27.813,50.999,27.963,49z"/>
	<path d="M38.281,35h12.213l-1.474-3.578C45.025,21.724,43,11.488,43,1V0h-8v1.001c0,10.127,2.819,31.565,2.984,32.812L38.281,35z"
		/>
	<path d="M22.015,33.826C22.038,33.644,25,11.377,25,1V0h-8v1c0,10.485-2.024,20.718-6.017,30.414L9.507,35h12.301L22.015,33.826z"
		/>
</g>
<g>
</g>
<g>
</g>
<g>
</g>
<g>
</g>
<g>
</g>
<g>
</g>
<g>
</g>
<g>
</g>
<g>
</g>
<g>
</g>
<g>
</g>
<g>
</g>
<g>
</g>
<g>
</g>
<g>
</g>
</svg>
