<?xml version='1.0' encoding='iso-8859-1'?>
<!DOCTYPE svg PUBLIC '-//W3C//DTD SVG 1.1//EN' 'http://www.w3.org/Graphics/SVG/1.1/DTD/svg11.dtd'>
<svg version="1.1" xmlns="http://www.w3.org/2000/svg" viewBox="0 0 472.977 472.977" xmlns:xlink="http://www.w3.org/1999/xlink" enable-background="new 0 0 472.977 472.977">
  <g>
    <path d="m55.914,181.109c1.953,1.952 4.512,2.929 7.071,2.929s5.119-0.976 7.071-2.929l16.972-16.972c3.905-3.905 3.905-10.237 0-14.142-3.905-3.905-10.237-3.905-14.143,0l-9.901,9.901-9.902-9.901c-3.905-3.905-10.237-3.905-14.142,0s-3.905,10.237 0,14.142l16.974,16.972z"/>
    <path d="m38.941,201.812l16.973,16.972c1.953,1.952 4.512,2.929 7.071,2.929s5.119-0.976 7.071-2.929l16.972-16.972c3.905-3.905 3.905-10.237 0-14.142-3.905-3.905-10.237-3.905-14.143,0l-9.901,9.901-9.902-9.901c-3.905-3.905-10.237-3.905-14.142,0s-3.904,10.237 0.001,14.142z"/>
    <path d="m38.941,239.487l16.973,16.972c1.953,1.952 4.512,2.929 7.071,2.929s5.119-0.976 7.071-2.929l16.972-16.972c3.905-3.905 3.905-10.237 0-14.142-3.905-3.905-10.237-3.905-14.143,0l-9.901,9.901-9.902-9.901c-3.905-3.905-10.237-3.905-14.142,0s-3.904,10.237 0.001,14.142z"/>
    <path d="m72.886,263.02l-9.901,9.901-9.902-9.901c-3.905-3.905-10.237-3.905-14.142,0s-3.905,10.237 0,14.142l16.973,16.972c1.875,1.875 4.419,2.929 7.071,2.929 2.652,0 5.196-1.054 7.071-2.929l16.972-16.972c3.905-3.905 3.905-10.237 0-14.142-3.905-3.905-10.237-3.905-14.142,0z"/>
    <path d="m72.886,300.696l-9.901,9.901-9.902-9.901c-3.905-3.905-10.237-3.905-14.142,0s-3.905,10.237 0,14.142l16.973,16.972c1.875,1.875 4.419,2.929 7.071,2.929 2.652,0 5.196-1.054 7.071-2.929l16.972-16.972c3.905-3.905 3.905-10.237 0-14.142-3.905-3.906-10.237-3.906-14.142,0z"/>
    <path d="m72.886,338.371l-9.901,9.901-9.902-9.901c-3.905-3.905-10.237-3.905-14.142,0s-3.905,10.237 0,14.142l16.973,16.972c1.953,1.952 4.512,2.929 7.071,2.929s5.119-0.976 7.071-2.929l16.972-16.972c3.905-3.905 3.905-10.237 0-14.142-3.905-3.905-10.237-3.905-14.142,0z"/>
    <path d="m118.131,181.109c1.953,1.953 4.512,2.929 7.071,2.929s5.119-0.976 7.071-2.929l16.972-16.972c3.905-3.905 3.905-10.237 0-14.142-3.905-3.905-10.237-3.905-14.143,0l-9.901,9.901-9.901-9.901c-3.905-3.905-10.237-3.905-14.143,0-3.905,3.905-3.905,10.237 0,14.142l16.974,16.972z"/>
    <path d="m101.159,201.812l16.972,16.972c1.953,1.953 4.512,2.929 7.071,2.929s5.119-0.976 7.071-2.929l16.972-16.972c3.905-3.905 3.905-10.237 0-14.142-3.905-3.905-10.237-3.905-14.143,0l-9.901,9.901-9.901-9.901c-3.905-3.905-10.237-3.905-14.143,0-3.903,3.905-3.903,10.236 0.002,14.142z"/>
    <path d="m101.159,239.487l16.972,16.972c1.953,1.953 4.512,2.929 7.071,2.929s5.119-0.976 7.071-2.929l16.972-16.972c3.905-3.905 3.905-10.237 0-14.142-3.905-3.905-10.237-3.905-14.143,0l-9.901,9.901-9.901-9.901c-3.905-3.905-10.237-3.905-14.143,0-3.903,3.905-3.903,10.237 0.002,14.142z"/>
    <path d="m135.104,263.02l-9.901,9.901-9.901-9.901c-3.906-3.905-10.237-3.905-14.142,0-3.905,3.905-3.906,10.237 0,14.142l16.972,16.972c1.875,1.875 4.419,2.929 7.071,2.929s5.196-1.054 7.071-2.929l16.972-16.972c3.905-3.905 3.905-10.237 0-14.142-3.906-3.905-10.237-3.905-14.142,0z"/>
    <path d="m135.104,300.696l-9.901,9.901-9.901-9.901c-3.906-3.905-10.237-3.905-14.142,0-3.905,3.905-3.906,10.237 0,14.142l16.972,16.972c1.875,1.875 4.419,2.929 7.071,2.929s5.196-1.054 7.071-2.929l16.972-16.972c3.905-3.905 3.905-10.237 0-14.142-3.906-3.906-10.237-3.906-14.142,0z"/>
    <path d="m135.104,338.371l-9.901,9.901-9.901-9.901c-3.905-3.905-10.237-3.905-14.143,0-3.905,3.905-3.905,10.237 0,14.142l16.972,16.972c1.953,1.953 4.512,2.929 7.071,2.929s5.119-0.976 7.071-2.929l16.972-16.972c3.905-3.905 3.905-10.237 0-14.142-3.904-3.905-10.236-3.905-14.141,0z"/>
    <path d="m197.322,149.994l-9.902,9.901-9.901-9.901c-3.905-3.905-10.237-3.905-14.143,0-3.905,3.905-3.905,10.237 0,14.142l16.972,16.972c1.953,1.953 4.512,2.929 7.071,2.929 2.559,0 5.119-0.977 7.071-2.929l16.973-16.972c3.905-3.905 3.906-10.237 0-14.142-3.904-3.905-10.235-3.904-14.141,0z"/>
    <path d="m197.322,187.669l-9.902,9.901-9.901-9.901c-3.905-3.905-10.237-3.905-14.143,0-3.905,3.905-3.905,10.237 0,14.142l16.972,16.972c1.953,1.953 4.512,2.929 7.071,2.929 2.559,0 5.119-0.977 7.071-2.929l16.973-16.972c3.905-3.905 3.906-10.237 0-14.142-3.904-3.904-10.235-3.904-14.141,0z"/>
    <path d="m197.322,225.345l-9.902,9.901-9.901-9.901c-3.905-3.905-10.237-3.905-14.143,0-3.905,3.905-3.905,10.237 0,14.142l16.972,16.972c1.953,1.953 4.512,2.929 7.071,2.929 2.559,0 5.119-0.977 7.071-2.929l16.973-16.972c3.905-3.905 3.906-10.237 0-14.142s-10.235-3.905-14.141,0z"/>
    <path d="m197.322,263.02l-9.902,9.901-9.901-9.901c-3.905-3.905-10.237-3.905-14.142,0s-3.906,10.237 0,14.142l16.972,16.972c1.875,1.875 4.419,2.929 7.071,2.929 2.652,0 5.196-1.054 7.071-2.929l16.973-16.972c3.905-3.905 3.906-10.237 0-14.142s-10.236-3.905-14.142,0z"/>
    <path d="m197.322,300.696l-9.902,9.901-9.901-9.901c-3.905-3.905-10.237-3.905-14.142,0s-3.906,10.237 0,14.142l16.972,16.972c1.875,1.875 4.419,2.929 7.071,2.929 2.652,0 5.196-1.054 7.071-2.929l16.973-16.972c3.905-3.905 3.906-10.237 0-14.142-3.905-3.905-10.236-3.905-14.142,0z"/>
    <path d="m197.322,338.371l-9.902,9.901-9.901-9.901c-3.905-3.905-10.237-3.905-14.143,0-3.905,3.905-3.905,10.237 0,14.142l16.972,16.972c1.953,1.953 4.512,2.929 7.071,2.929 2.559,0 5.119-0.977 7.071-2.929l16.973-16.972c3.905-3.905 3.906-10.237 0-14.142s-10.235-3.905-14.141,0z"/>
    <path d="m242.567,181.109c1.953,1.953 4.512,2.929 7.071,2.929s5.119-0.976 7.071-2.929l16.972-16.972c3.905-3.905 3.905-10.237 0-14.142-3.905-3.905-10.237-3.905-14.143,0l-9.901,9.901-9.901-9.901c-3.905-3.905-10.237-3.905-14.143,0-3.905,3.905-3.905,10.237 0,14.142l16.974,16.972z"/>
    <path d="m225.595,201.812l16.972,16.972c1.953,1.953 4.512,2.929 7.071,2.929s5.119-0.976 7.071-2.929l16.972-16.972c3.905-3.905 3.905-10.237 0-14.142-3.905-3.905-10.237-3.905-14.143,0l-9.901,9.901-9.901-9.901c-3.905-3.905-10.237-3.905-14.143,0-3.903,3.905-3.903,10.236 0.002,14.142z"/>
    <path d="m225.595,239.487l16.972,16.972c1.953,1.953 4.512,2.929 7.071,2.929s5.119-0.976 7.071-2.929l16.972-16.972c3.905-3.905 3.905-10.237 0-14.142-3.905-3.905-10.237-3.905-14.143,0l-9.901,9.901-9.901-9.901c-3.905-3.905-10.237-3.905-14.143,0-3.903,3.905-3.903,10.237 0.002,14.142z"/>
    <path d="m259.54,263.02l-9.901,9.901-9.901-9.901c-3.905-3.905-10.237-3.905-14.142,0s-3.906,10.237 0,14.142l16.972,16.972c1.875,1.875 4.419,2.929 7.071,2.929s5.196-1.054 7.071-2.929l16.972-16.972c3.905-3.905 3.905-10.237 0-14.142-3.906-3.905-10.237-3.905-14.142,0z"/>
    <path d="m259.54,300.696l-9.901,9.901-9.901-9.901c-3.905-3.905-10.237-3.905-14.142,0s-3.906,10.237 0,14.142l16.972,16.972c1.875,1.875 4.419,2.929 7.071,2.929s5.196-1.054 7.071-2.929l16.972-16.972c3.905-3.905 3.905-10.237 0-14.142-3.906-3.906-10.237-3.906-14.142,0z"/>
    <path d="m259.54,338.371l-9.901,9.901-9.901-9.901c-3.905-3.905-10.237-3.905-14.143,0-3.905,3.905-3.905,10.237 0,14.142l16.972,16.972c1.953,1.953 4.512,2.929 7.071,2.929s5.119-0.976 7.071-2.929l16.972-16.972c3.905-3.905 3.905-10.237 0-14.142-3.904-3.905-10.236-3.905-14.141,0z"/>
    <path d="m321.758,149.994l-9.902,9.901-9.901-9.901c-3.905-3.905-10.237-3.905-14.143,0-3.905,3.905-3.905,10.237 0,14.142l16.972,16.972c1.953,1.953 4.512,2.929 7.071,2.929 2.559,0 5.119-0.977 7.071-2.929l16.973-16.972c3.905-3.905 3.906-10.237 0-14.142-3.904-3.905-10.236-3.904-14.141,0z"/>
    <path d="m321.758,187.669l-9.902,9.901-9.901-9.901c-3.905-3.905-10.237-3.905-14.143,0-3.905,3.905-3.905,10.237 0,14.142l16.972,16.972c1.953,1.953 4.512,2.929 7.071,2.929 2.559,0 5.119-0.977 7.071-2.929l16.973-16.972c3.905-3.905 3.906-10.237 0-14.142-3.904-3.904-10.236-3.904-14.141,0z"/>
    <path d="m321.758,225.345l-9.902,9.901-9.901-9.901c-3.905-3.905-10.237-3.905-14.143,0-3.905,3.905-3.905,10.237 0,14.142l16.972,16.972c1.953,1.953 4.512,2.929 7.071,2.929 2.559,0 5.119-0.977 7.071-2.929l16.973-16.972c3.905-3.905 3.906-10.237 0-14.142-3.904-3.905-10.236-3.905-14.141,0z"/>
    <path d="m321.758,263.02l-9.902,9.901-9.901-9.901c-3.905-3.905-10.237-3.905-14.142,0s-3.906,10.237 0,14.142l16.972,16.972c1.875,1.875 4.419,2.929 7.071,2.929 2.652,0 5.196-1.054 7.071-2.929l16.973-16.972c3.905-3.905 3.906-10.237 0-14.142-3.905-3.905-10.237-3.905-14.142,0z"/>
    <path d="m321.758,300.696l-9.902,9.901-9.901-9.901c-3.905-3.905-10.237-3.905-14.142,0s-3.906,10.237 0,14.142l16.972,16.972c1.875,1.875 4.419,2.929 7.071,2.929 2.652,0 5.196-1.054 7.071-2.929l16.973-16.972c3.905-3.905 3.906-10.237 0-14.142-3.905-3.905-10.237-3.905-14.142,0z"/>
    <path d="m321.758,338.371l-9.902,9.901-9.901-9.901c-3.905-3.905-10.237-3.905-14.143,0-3.905,3.905-3.905,10.237 0,14.142l16.972,16.972c1.953,1.953 4.512,2.929 7.071,2.929 2.559,0 5.119-0.977 7.071-2.929l16.973-16.972c3.905-3.905 3.906-10.237 0-14.142-3.904-3.905-10.236-3.905-14.141,0z"/>
    <path d="m367.003,181.109c1.953,1.953 4.512,2.929 7.071,2.929s5.119-0.976 7.071-2.929l16.972-16.972c3.905-3.905 3.905-10.237 0-14.142-3.905-3.905-10.237-3.905-14.143,0l-9.901,9.901-9.901-9.901c-3.905-3.905-10.237-3.905-14.143,0-3.905,3.905-3.905,10.237 0,14.142l16.974,16.972z"/>
    <path d="m350.031,201.812l16.972,16.972c1.953,1.953 4.512,2.929 7.071,2.929s5.119-0.976 7.071-2.929l16.972-16.972c3.905-3.905 3.905-10.237 0-14.142-3.905-3.905-10.237-3.905-14.143,0l-9.901,9.901-9.901-9.901c-3.905-3.905-10.237-3.905-14.143,0-3.903,3.905-3.903,10.236 0.002,14.142z"/>
    <path d="m350.031,239.487l16.972,16.972c1.953,1.953 4.512,2.929 7.071,2.929s5.119-0.976 7.071-2.929l16.972-16.972c3.905-3.905 3.905-10.237 0-14.142-3.905-3.905-10.237-3.905-14.143,0l-9.901,9.901-9.901-9.901c-3.905-3.905-10.237-3.905-14.143,0-3.903,3.905-3.903,10.237 0.002,14.142z"/>
    <path d="m383.976,263.02l-9.901,9.901-9.901-9.901c-3.905-3.905-10.237-3.905-14.142,0s-3.906,10.237 0,14.142l16.972,16.972c1.875,1.875 4.419,2.929 7.071,2.929s5.196-1.054 7.071-2.929l16.972-16.972c3.905-3.905 3.905-10.237 0-14.142-3.906-3.905-10.237-3.905-14.142,0z"/>
    <path d="m383.976,300.696l-9.901,9.901-9.901-9.901c-3.905-3.905-10.237-3.905-14.142,0s-3.906,10.237 0,14.142l16.972,16.972c1.875,1.875 4.419,2.929 7.071,2.929s5.196-1.054 7.071-2.929l16.972-16.972c3.905-3.905 3.905-10.237 0-14.142-3.906-3.906-10.237-3.906-14.142,0z"/>
    <path d="m383.976,338.371l-9.901,9.901-9.901-9.901c-3.905-3.905-10.237-3.905-14.143,0-3.905,3.905-3.905,10.237 0,14.142l16.972,16.972c1.953,1.953 4.512,2.929 7.071,2.929s5.119-0.976 7.071-2.929l16.972-16.972c3.905-3.905 3.905-10.237 0-14.142-3.904-3.905-10.236-3.905-14.141,0z"/>
    <path d="m446.478,100.563c-11.075,0-20.579,6.831-24.534,16.499h-21.183c-0.415-1.737-1.288-3.388-2.644-4.743-3.905-3.905-10.237-3.905-14.142,0l-4.743,4.743h-10.316l-4.743-4.743c-3.905-3.905-10.237-3.905-14.142,0-1.356,1.356-2.229,3.006-2.644,4.743h-8.844c-0.414-1.737-1.288-3.388-2.644-4.743-3.906-3.905-10.237-3.905-14.142,0l-4.743,4.743h-10.316l-4.743-4.743c-3.905-3.905-10.237-3.905-14.142,0-1.356,1.356-2.229,3.006-2.644,4.743h-8.844c-0.415-1.737-1.288-3.388-2.644-4.743-3.905-3.905-10.237-3.905-14.142,0l-4.743,4.743h-10.316l-4.743-4.743c-3.905-3.905-10.237-3.905-14.142,0-1.356,1.356-2.229,3.006-2.644,4.743h-8.844c-0.414-1.737-1.288-3.388-2.644-4.743-3.905-3.905-10.237-3.905-14.142,0l-4.743,4.743h-10.316l-4.743-4.743c-3.905-3.905-10.237-3.905-14.142,0-1.356,1.356-2.229,3.006-2.644,4.743h-150.733c-5.523,0-10,4.477-10,10s4.477,10 10,10h163.978l6.371,6.371c1.875,1.875 4.419,2.929 7.071,2.929 2.652,0 5.196-1.054 7.071-2.929l6.371-6.371h35.333l6.371,6.371c1.875,1.875 4.419,2.929 7.071,2.929s5.196-1.053 7.071-2.929l6.371-6.371h35.333l6.371,6.371c1.875,1.875 4.419,2.929 7.071,2.929 2.652,0 5.196-1.054 7.071-2.929l6.371-6.371h35.333l6.371,6.371c1.875,1.875 4.419,2.929 7.071,2.929s5.196-1.053 7.071-2.929l6.371-6.371h34.427c3.955,9.668 13.459,16.499 24.534,16.499 14.612,0 26.499-11.887 26.499-26.499 0.004-14.612-11.883-26.499-26.495-26.499zm0,32.998c-3.583,0-6.499-2.916-6.499-6.499 0-3.584 2.916-6.499 6.499-6.499s6.499,2.916 6.499,6.499c-5.68434e-14,3.584-2.915,6.499-6.499,6.499z"/>
  </g>
</svg>
