<?xml version="1.0" encoding="iso-8859-1"?>
<!-- Generator: Adobe Illustrator 16.0.0, SVG Export Plug-In . SVG Version: 6.00 Build 0)  -->
<!DOCTYPE svg PUBLIC "-//W3C//DTD SVG 1.1//EN" "http://www.w3.org/Graphics/SVG/1.1/DTD/svg11.dtd">
<svg version="1.1" id="Capa_1" xmlns="http://www.w3.org/2000/svg" xmlns:xlink="http://www.w3.org/1999/xlink" x="0px" y="0px"
	 width="303.722px" height="303.722px" viewBox="0 0 303.722 303.722" style="enable-background:new 0 0 303.722 303.722;"
	 xml:space="preserve">
<g>
	<g>
		<g id="Layer_5_33_">
			<g>
				<path d="M218.514,295.519c-1.921,4.513-7.503,8.203-12.405,8.203H97.615c-4.903,0-10.486-3.69-12.405-8.203l-16.726-39.308
					c-1.919-4.513,0.521-8.203,5.425-8.203h155.906c4.902,0,7.345,3.69,5.425,8.203L218.514,295.519z"/>
				<g>
					<path d="M267.999,161.396c-2.325-3.152-6.777-4.585-7.893-6.068c-1.154-1.543,0.393-5.633-1.708-10.715
						c-2.163-5.233-9.073-9.421-15.938-10.438c-2.301-0.341-3.787,0.757-4.668,0.21c-2.56-1.589-3.469-6.646-11.183-7.877
						c-4.607-0.735-9.454-1.004-13.146-0.371c-11.184,1.921-21.186,9.014-23.781,16.868c-3.932,11.895,7.289,18.827,12.08,21.789
						c0.564,0.351,1.127,0.694,1.656,1.036c2.214,1.517,4.433,2.345,6.271,2.851c0.474,0.13,1.21,0.244,0.875,0.661
						c-5.723,9.746-13.947,20.369-25.481,26.097c-5.7,2.828-10.868,6.221-15.326,9.592c-6.557-24.061-4.648-41.979-3.454-55.708
						c0.409-4.712,0.511-8.926,0.306-14.226c0.043-0.921,0.619-1.042,0.942-1.115c4.035-0.898,7.926-2.713,11.619-5.451
						c4.352-2.891,7.175-6.487,9.453-9.39c2.399-3.058,3.773-4.723,5.935-5.676c3.428-1.315,6.892-1.954,10.584-1.954
						c3.509,0,7.272,0.606,11.192,1.802l0.199,0.061l0.203,0.053c4.368,1.136,10.973,2.489,17.625,2.489
						c9.988,0,17.55-2.95,22.475-8.769c4.786-5.656,6.433-13.267,4.888-22.625c-1.062-7.226-4.864-12.164-7.927-16.137
						c-1.511-1.96-3.938-4.959-2.449-6.245c2.512-2.172,6.404-5.311,8.53-10.922c2.692-6.689,1.785-13.939-2.562-20.437
						c-5.391-8.053-16.832-13.396-24.949-13.874c-15.874-0.934-30.262,12.285-30.27,12.286c-2.513,0.09-4.846-5.682-6.897-8.496
						c-6.494-8.9-14.576-19.977-27.756-20.646C166.784,0.016,166.117,0,165.447,0c-19.578,0-41.078,13.962-50.01,32.476
						c-1.561,3.232-4.092,7.027-5.723,7.927c-1.295,0.714-6.857,0.184-9.626-0.559c-2.138-0.574-4.787-1.285-8.022-1.827
						c-3.363-0.696-6.725-1.048-9.995-1.048c-12.9,0-24.793,5.462-34.39,15.794C36.91,64.358,34.234,81.143,33.597,90.117
						c-0.387,5.464-1.003,24.038,7.344,33.635c10.814,12.433,26.382,19.563,42.712,19.564c0.001,0,0.002,0,0.002,0
						c5.894,0,11.783-0.938,17.505-2.786c5.761-1.698,10.719-4.591,15.516-7.39c5.446-3.179,10.591-6.181,15.256-6.181
						c0.319,0,0.629,0.013,0.946,0.039l0.182,0.014c3.441,0.224,7.122,1.699,11.021,3.26c0.418,0.167,0.843,0.337,1.271,0.507
						c0.209,0.083,0.595,0.396,0.552,1.134c-0.283,3.139-0.52,5.729-0.866,9.524c-1.862,20.316-10.229,60.582-16.977,75.891
						c-4.632,10.511-16.385,11.984-18.634,18.148c-0.196,0.536-0.286,1.557,1.131,1.488c0,0,62.267,0.067,62.668,0.067
						c0.741,0,1.452-0.297,1.883-0.452c5.146-1.873,9.847-7.953,18.028-21.476c5.499-9.089,14.378-21.594,22.668-33.931
						c0.643-0.877,1.021-0.442,1.293-0.29c1.234,0.697,2.719,1.272,4.523,1.651c0.617,0.162,1.182,0.298,1.717,0.427
						c0.699,0.167,1.671,0.098,2.449,0.77c4.486,3.877,5.938,11.103,12.968,12.224c0,0,0,0,0.001,0
						c2.896,0.462,8.543,0.418,13.918-5.037c2.044-2.021,2.999-3.552,3.875-5.069c0.467-0.807,2.169-1.084,3.373-1.547
						c4.546-1.682,8.028-5.77,9.57-11.241C270.168,170.659,271.511,166.004,267.999,161.396z"/>
				</g>
			</g>
		</g>
	</g>
</g>
<g>
</g>
<g>
</g>
<g>
</g>
<g>
</g>
<g>
</g>
<g>
</g>
<g>
</g>
<g>
</g>
<g>
</g>
<g>
</g>
<g>
</g>
<g>
</g>
<g>
</g>
<g>
</g>
<g>
</g>
</svg>
