<svg xmlns="http://www.w3.org/2000/svg"><symbol id="block" viewBox="0 0 512 512"><path d="M507.756 176.986a9.495 9.495 0 0 0-1.838-.935l.005-.012-28.034-10.783c3.652-5.604 5.667-11.774 5.667-18.294 0-26.583-33.318-47.407-75.852-47.407-23.434 0-44.054 6.329-57.863 16.452l-22.926-8.817c3.184-5.288 4.937-11.049 4.937-17.116 0-26.583-33.318-47.407-75.852-47.407s-75.852 20.824-75.852 47.407c0 6.067 1.753 11.829 4.937 17.117l-16.851 6.481c-13.687-8.75-32.881-14.116-54.456-14.116-42.533 0-75.852 20.824-75.852 47.407 0 5.386 1.389 10.53 3.924 15.318L6.078 176.039l.005.012a9.411 9.411 0 0 0-1.838.935A9.48 9.48 0 0 0 0 184.889v170.667a9.482 9.482 0 0 0 5.787 8.732l246.518 104.296c.089.038.185.05.275.085.418.162.843.294 1.277.395.156.036.31.075.467.103a9.547 9.547 0 0 0 1.668.167h.014a9.36 9.36 0 0 0 1.669-.167c.156-.028.309-.066.464-.102a9.395 9.395 0 0 0 1.282-.396c.089-.035.183-.047.272-.084l246.519-104.296a9.482 9.482 0 0 0 5.787-8.732V184.889a9.478 9.478 0 0 0-4.243-7.903zm-100.052-58.467c33.526 0 56.889 14.991 56.889 28.444 0 13.454-23.363 28.444-56.889 28.444s-56.889-14.991-56.889-28.444c0-13.454 23.363-28.444 56.889-28.444zM256 61.63c33.526 0 56.889 14.991 56.889 28.444 0 13.454-23.363 28.444-56.889 28.444s-56.889-14.991-56.889-28.444c0-13.454 23.363-28.444 56.889-28.444zm-142.222 56.889c33.526 0 56.889 14.991 56.889 28.444 0 13.454-23.363 28.444-56.889 28.444s-56.889-14.991-56.889-28.444c0-13.454 23.363-28.444 56.889-28.444zm132.74 327.028L18.963 349.271V199.195l227.556 96.275v150.077zM256 278.891L34.804 185.308l20.452-7.866c13.806 10.404 34.718 16.928 58.521 16.928 42.533 0 75.852-20.824 75.852-47.407 0-6.746-2.154-13.118-6.051-18.876l15.875-6.105c13.786 9.568 33.853 15.499 56.547 15.499 22.695 0 42.762-5.931 56.548-15.5l23.55 9.057c-2.745 4.958-4.246 10.31-4.246 15.924 0 26.583 33.318 47.407 75.852 47.407 21.95 0 41.429-5.555 55.158-14.576l14.335 5.513L256 278.891zm237.037 70.38l-227.556 96.275V295.47l227.556-96.275v150.076z"/><path d="M256 156.445c-42.533 0-75.852 20.824-75.852 47.407 0 26.583 33.318 47.407 75.852 47.407s75.852-20.824 75.852-47.407c0-26.583-33.319-47.407-75.852-47.407zm0 75.851c-33.526 0-56.889-14.991-56.889-28.444s23.363-28.444 56.889-28.444 56.889 14.991 56.889 28.444-23.363 28.444-56.889 28.444z"/></symbol><symbol id="cart" viewBox="0 0 207.126 207.126"><path d="M171.452 193.675c-7.482 0-13.569-6.087-13.569-13.569 0-2.801.853-5.406 2.313-7.569H94.068a13.49 13.49 0 0 1 2.313 7.569c0 7.482-6.087 13.569-13.569 13.569s-13.569-6.087-13.569-13.569c0-2.827.869-5.455 2.354-7.631-6.71-.604-12.359-5.587-13.705-12.292l-22.363-111.4-.004-.021-3.876-19.616c-1.158-5.607-6.177-9.696-11.928-9.696H3a3 3 0 1 1 0-6h16.72c8.583 0 16.073 6.102 17.809 14.508l3.406 17.231h163.191a2.997 2.997 0 0 1 2.945 3.568l-4.419 22.945a1.806 1.806 0 0 1-.021.106l-4.593 23.846a2.755 2.755 0 0 1-.025.131l-9.032 46.891a3 3 0 0 1-2.946 2.433H60.986l2.789 13.894c.876 4.365 4.744 7.534 9.196 7.534h98.481c7.482 0 13.569 6.087 13.569 13.569s-6.087 13.569-13.569 13.569zm0-21.138c-4.174 0-7.569 3.396-7.569 7.569s3.396 7.569 7.569 7.569 7.569-3.396 7.569-7.569-3.396-7.569-7.569-7.569zm-88.64 0c-4.174 0-7.569 3.396-7.569 7.569s3.396 7.569 7.569 7.569 7.569-3.396 7.569-7.569-3.396-7.569-7.569-7.569zm88.685-33.428h12.061l3.273-16.995h-14.43l-.904 16.995zm-30.988 0h24.979l.905-16.995h-25.522l-.362 16.995zm-31.017 0h25.015l.362-16.995h-25.74l.363 16.995zm-30.981 0h24.979l-.362-16.995H77.606l.905 16.995zm-18.425 0h12.417l-.905-16.995h-14.98l3.468 16.995zm112.635-22.994h15.266l3.46-17.965h-17.77l-.956 17.965zm-31.722 0h25.714l.957-17.965h-26.288l-.383 17.965zm-31.997 0h25.995l.383-17.965h-26.76l.382 17.965zm-31.715 0h25.714l-.383-17.965H76.331l.956 17.965zm-21.894 0h15.885l-.957-17.965H51.727l3.666 17.965zm118.604-23.966h18.606l3.46-17.965h-21.111l-.955 17.965zm-32.488 0h26.479l.957-17.965h-27.053l-.383 17.965zm-33.017 0h27.015l.383-17.965h-27.781l.383 17.965zm-32.481 0h26.479l-.383-17.965H75.055l.956 17.965zm-25.509 0h19.5l-.956-17.965h-22.21l3.666 17.965zm124.771-23.964h21.947l3.273-16.995h-24.315l-.905 16.995zm-33.254 0h27.245l.905-16.995h-27.788l-.362 16.995zm-34.038 0h28.037l.362-16.995h-28.76l.361 16.995zm-33.246 0h27.245l-.362-16.995H73.831l.904 16.995zm-29.123 0h23.115l-.905-16.995H42.144l3.468 16.995z"/></symbol><symbol id="lamp" viewBox="0 0 60 60"><path d="M38 54h-1c-1.281 0-2.69-2.012-2.953-5.005A3 3 0 0 0 37 46a2.997 2.997 0 0 0-2.541-2.954l1.686-4.216L33.08 35h3.145l-.217-.867C35.978 33.907 33 11.513 33 1.001V0h-6v1c0 10.51-2.979 32.907-3.009 33.133l-.153.867h3.081l-3.064 3.83 1.686 4.216A2.996 2.996 0 0 0 23 46a3 3 0 0 0 2.953 2.995C25.69 51.988 24.281 54 23 54h-1c-2.757 0-5 2.243-5 5v1h26v-1c0-2.757-2.243-5-5-5zm-8.52-19h1.039l3.335 4.17L32.323 43h-4.646l-1.532-3.83L29.48 35zm-1.517 14h4.074c.149 1.999.742 3.75 1.622 5h-7.318c.879-1.25 1.472-3.001 1.622-5z"/><path d="M38.281 35h12.213l-1.474-3.578A79.484 79.484 0 0 1 43 1V0h-8v1.001c0 10.127 2.819 31.565 2.984 32.812L38.281 35zM22.015 33.826C22.038 33.644 25 11.377 25 1V0h-8v1a79.483 79.483 0 0 1-6.017 30.414L9.507 35h12.301l.207-1.174z"/></symbol><symbol id="search" viewBox="0 0 176.292 176.292"><path d="M24.027 46.333c-4.32 16.125-2.103 32.968 6.244 47.426 11.132 19.281 31.892 31.259 54.178 31.259a62.367 62.367 0 0 0 24.474-5.03l32.507 56.303 12.99-7.5-32.508-56.305c11.174-8.353 19.19-20.117 22.856-33.802 4.32-16.125 2.103-32.968-6.244-47.426C127.393 11.978 106.633 0 84.347 0c-10.912 0-21.7 2.899-31.199 8.383-14.458 8.347-24.799 21.825-29.121 37.95zM84.347 15c16.944 0 32.727 9.104 41.188 23.759 6.344 10.988 8.029 23.789 4.745 36.044-3.283 12.255-11.143 22.499-22.131 28.842-7.222 4.169-15.416 6.373-23.699 6.373-16.944 0-32.727-9.104-41.188-23.759-6.344-10.988-8.029-23.788-4.745-36.043C41.801 37.96 49.66 27.717 60.648 21.373 67.87 17.204 76.064 15 84.347 15z"/></symbol></svg>